<svg xmlns="http://www.w3.org/2000/svg" viewBox="0 0 191.86 51.09" fill="none">
  <path d="M67.016.4V20h2.8v-8.54h8.512V20h2.8V.4h-2.8V8.884H69.816V.4zm18.1563 0V20h2.8V.4zm5.2119 0l6.02 19.6h4.4238l6.02-19.6h-3.024l-5.0398 17.08h-.336L93.4082.4zm18.8778 0V20h12.656v-2.576h-9.856V11.46h8.96V8.884h-8.96V2.976h9.744V.4zM67.016 27.4V47h2.8V27.4zm6.8359 0V47h2.8V29.92h.336L83.0359 47h5.208V27.4h-2.8v17.108h-.336L79.0039 27.4zm18.4297 0V47h2.8V27.4zm5.38 0v2.576H103.99V47h2.8V29.976h6.328V27.4zm18.0264 0V47h2.8V27.4zm11.456 0l-6.132 19.6h2.968l1.428-4.704h7.896L134.732 47h2.968l-6.132-19.6zm-.98 12.32l3.024-9.856h.336l3.024 9.856zM137.091 27.4v2.576h6.328V47h2.8V29.976h6.328V27.4zm18.027 0V47h2.8V27.4zm5.212 0l6.02 19.6h4.424l6.02-19.6h-3.024l-5.04 17.08h-.336l-5.04-17.08zm18.877 0V47h12.656v-2.576h-9.856V38.46h8.96v-2.576h-8.96v-5.908h9.744V27.4z" fill="#1d3d37"/>
  <circle cx="38.59" cy="3.8" r="2.72" fill="#ff7e42"/>
  <circle cx="44.02" cy="7.07" r="2.72" fill="#ff7e42"/>
  <circle cx="33.15" cy="7.07" r="2.72" fill="#ff7e42"/>
  <circle cx="36.41" cy="13.59" r="2.72" fill="#ff7e42"/>
  <circle cx="41.85" cy="16.85" r="2.72" fill="#ff7e42"/>
  <circle cx="47.28" cy="13.59" r="2.72" fill="#ff7e42"/>
  <circle cx="47.28" cy="20.11" r="2.72" fill="#ff7e42"/>
  <circle cx="30.98" cy="16.85" r="2.72" fill="#ff7e42"/>
  <circle cx="36.41" cy="20.11" r="2.72" fill="#ff7e42"/>
  <circle cx="41.85" cy="23.37" r="2.72" fill="#ff7e42"/>
  <circle cx="47.28" cy="26.63" r="2.72" fill="#ff7e42"/>
  <circle cx="30.98" cy="23.37" r="2.72" fill="#ff7e42"/>
  <circle cx="36.41" cy="26.63" r="2.72" fill="#ff7e42"/>
  <circle cx="41.85" cy="29.89" r="2.72" fill="#ff7e42"/>
  <circle cx="47.28" cy="33.15" r="2.72" fill="#ff7e42"/>
  <circle cx="41.85" cy="36.41" r="2.72" fill="#ff7e42"/>
  <circle cx="47.28" cy="39.67" r="2.72" fill="#ff7e42"/>
  <circle cx="41.85" cy="42.93" r="2.72" fill="#ff7e42"/>
  <circle cx="3.8" cy="25.54" r="2.72" fill="#ff7e42"/>
  <circle cx="9.24" cy="28.8" r="2.72" fill="#ff7e42"/>
  <circle cx="14.67" cy="32.07" r="2.72" fill="#ff7e42"/>
  <circle cx="3.8" cy="32.07" r="2.72" fill="#ff7e42"/>
  <circle cx="9.24" cy="35.33" r="2.72" fill="#ff7e42"/>
  <circle cx="14.67" cy="38.59" r="2.72" fill="#ff7e42"/>
  <circle cx="8.15" cy="41.85" r="2.72" fill="#ff7e42"/>
  <circle cx="8.15" cy="48.37" r="2.72" fill="#ff7e42"/>
  <circle cx="8.15" cy="12.5" r="2.72" fill="#ff7e42"/>
  <circle cx="8.15" cy="5.98" r="2.72" fill="#ff7e42"/>
  <circle cx="13.59" cy="2.72" r="2.72" fill="#ff7e42"/>
  <circle cx="2.72" cy="9.24" r="2.72" fill="#ff7e42"/>
</svg>
