<svg width="33" height="10" viewBox="0 0 33 10" fill="none" xmlns="http://www.w3.org/2000/svg">
  <g>
    <path
      d="M-198 0L-211.5 8.5L-212 -30L741.5 -38L823.5 -29L824.5 1.5L809 10L792 0L776 10L759 0L743 10L726 0L710 10L693 0L677 10L659.5 0L643.5 10L627 0L610.5 10L594 0L578 10L561 0L545 10L528 0L512 10L495 0L478.5 10L462 0L445.5 10L428.5 0L412.5 10L395.5 0L379.5 10L363 0L346.5 10L329.5 0L313.5 10L297 0L281 10L264 0L248 10L231 0L215 10L198 0L182 10L165 0L149 10L132 0L116 10L99 0L83 10L66 0L50 10L33 0L17 10L0 0L-16 10L-33 0L-49 10L-66 0L-82 10L-99 0L-115 10L-132 0L-148 10L-165 0L-181.5 10L-198 0Z"
      fill="#fff3dc"/>
  </g>
</svg>
